<?xml-stylesheet href="../../sass/style.css" type="text/css"?><svg xmlns="http://www.w3.org/2000/svg" width="81" height="23" fill="none" class="logo-svg"><path stroke="#499A18" stroke-linecap="round" stroke-linejoin="round" d="M2.527 20.947 10.92 3.664S3.576 7.01 2.002 10.912c-1.574 3.902-1.075 7.492 0 10.035"/><path stroke="#499A18" stroke-linejoin="round" d="M1.996 20.992S27.71-8.6 19.316 4.223c-8.395 12.822.855 2.41-3.819 9.846-4.673 7.436-13.5 6.925-13.5 6.925Z"/><path fill="#000" d="M26.926 9.841c1.355 0 2.358.224 3.008.672.662.438.992 1.216.992 2.336 0 1.12-.325 2.011-.976 2.672-.65.651-1.7.976-3.152.976h-1.344l-.048 3.472 1.248.112c0 .299-.09.619-.272.96h-3.6l-.048-.544c.448-.17.907-.298 1.376-.384-.064-4.16-.117-7.253-.16-9.28-.288-.053-.757-.181-1.408-.384l.08-.608h4.304Zm-.288 5.616c.918-.01 1.616-.24 2.096-.688.48-.458.72-1.061.72-1.808 0-.746-.234-1.264-.704-1.552-.469-.298-1.22-.448-2.256-.448-.192 0-.517.006-.976.016l-.048 4.496 1.168-.016Zm7.348-6.304c.33 0 .565.011.704.032 0 .374-.07.8-.209 1.28l-.144 9.488 1.344.128c0 .299-.09.619-.271.96h-3.68l-.049-.56c.491-.17.971-.298 1.44-.384l-.16-9.68c-.586-.032-1.055-.096-1.407-.192l.064-.832c.543-.16 1.333-.24 2.368-.24Zm8.99 6.656-.08 4.128c.459.032.918.107 1.376.224l-.032.56c-.17.086-.48.182-.928.288-.437.096-.87.144-1.296.144a2.862 2.862 0 0 1-.32-1.104c-1.216.8-2.07 1.2-2.56 1.2-.757 0-1.365-.202-1.824-.608-.458-.405-.688-.97-.688-1.696 0-1.674 1.024-2.538 3.072-2.592l1.808-.048-.016-.544c-.021-.736-.16-1.264-.416-1.584-.256-.33-.714-.496-1.376-.496-.277 0-.576.064-.896.192l-.384 1.6c-.053.011-.144.016-.272.016l-.656-.048c-.17-.458-.261-1.093-.272-1.904.203-.106.667-.266 1.392-.48.726-.224 1.19-.336 1.392-.336 1.088 0 1.856.24 2.304.72.448.48.672 1.27.672 2.368Zm-3.488 4.352c.31 0 1.024-.346 2.144-1.04l-.08-2c-.725.064-1.333.123-1.824.176-.49.054-.885.198-1.184.432-.298.224-.448.582-.448 1.072 0 .907.464 1.36 1.392 1.36Zm10.673-7.44c1.024 0 1.766.256 2.224.768.459.502.688 1.27.688 2.304 0 .299-.042 1.686-.128 4.16l1.344.128c0 .299-.09.619-.272.96h-3.68l-.048-.56c.49-.17.97-.298 1.44-.384-.064-2.794-.122-4.346-.176-4.656a2.956 2.956 0 0 0-.224-.832.95.95 0 0 0-.48-.496c-.213-.096-.496-.144-.848-.144-.704 0-1.386.171-2.048.512a681.246 681.246 0 0 0-.128 5.472l1.344.128c0 .299-.09.619-.272.96h-3.68l-.048-.56c.49-.17.97-.298 1.44-.384-.064-2.709-.117-4.714-.16-6.016-.586-.032-1.056-.096-1.408-.192l.064-.832c.576-.16 1.414-.24 2.512-.24.128.192.224.47.288.832.459-.245.918-.458 1.376-.64.47-.192.763-.288.88-.288Zm6.052 7.328-.128-6.032h-1.232l-.048-.56c.106-.074.416-.213.928-.416l1.312-2.048c.213.022.378.075.496.16l-.016 1.76c.8 0 1.456.054 1.968.16 0 .288-.091.603-.272.944h-1.728a760.67 760.67 0 0 0-.064 5.824 7.536 7.536 0 0 1 1.792.32l-.016.56c-.15.096-.534.208-1.152.336-.608.128-1.11.192-1.504.192-.054-.085-.123-.266-.208-.544-.086-.288-.128-.506-.128-.656Zm5.706-.032c.373.16.827.24 1.36.24.544 0 .97-.101 1.28-.304.31-.202.464-.48.464-.832s-.144-.645-.432-.88a4.524 4.524 0 0 0-1.056-.624 32.72 32.72 0 0 1-1.248-.576 3.297 3.297 0 0 1-1.056-.8 1.7 1.7 0 0 1-.432-1.152c0-.736.245-1.312.736-1.728.49-.426 1.168-.64 2.032-.64.875 0 1.696.198 2.464.592.01.107.016.395.016.864 0 .459-.048.854-.144 1.184-.256.086-.56.128-.912.128l-.528-1.632c-.234-.117-.554-.176-.96-.176-.395 0-.71.107-.944.32a.988.988 0 0 0-.352.784c0 .31.144.582.432.816a5.38 5.38 0 0 0 1.072.64c.416.182.832.379 1.248.592.416.203.768.475 1.056.816.299.331.448.715.448 1.152 0 .768-.298 1.371-.896 1.808-.586.427-1.312.64-2.176.64-.47 0-.97-.074-1.504-.224-.533-.16-.981-.362-1.344-.608 0-.714.064-1.349.192-1.904.245-.042.576-.064.992-.064l.192 1.568Z" class="logo-path"/></svg>